Coordinates
version=1
nRows=60
nColumns=12
inDegrees=yes

Units are S.I. units (second, meters, Newtons, ...)
Angles are in degrees

endheader
time	SC_y	SC_z	SC_x	AC_y	AC_z	AC_x	GH_y	GH_z	GH_yy	EL_x	PS_y
       0.0              -15.91          4.693          70.33          38.69           -6.5          8.212          2.668          52.94         -24.62          96.29          155.1
   0.04669              -15.92          4.696          70.33           38.7         -6.502          8.213          2.651          52.94         -24.61          96.29          155.0
   0.09338              -15.92            4.7          70.32           38.7         -6.504          8.214          2.633          52.94         -24.59          96.29          155.0
    0.1401              -15.93          4.704          70.31          38.71         -6.505          8.215          2.614          52.94         -24.58          96.29          155.0
    0.1868              -15.93          4.708          70.31          38.71         -6.507          8.217          2.594          52.94         -24.56          96.29          155.0
    0.2334              -15.94          4.712           70.3          38.72         -6.509          8.218          2.572          52.95         -24.54          96.29          155.0
    0.2801              -15.95          4.717          70.29          38.72         -6.512          8.219          2.549          52.95         -24.52          96.28          154.9
    0.3268              -15.96          4.722          70.28          38.73         -6.514          8.221          2.524          52.95          -24.5          96.28          154.9
    0.3735              -15.97          4.727          70.27          38.74         -6.516          8.223          2.498          52.95         -24.48          96.28          154.9
    0.4202              -15.98          4.733          70.26          38.74         -6.519          8.224          2.469          52.95         -24.46          96.28          154.9
    0.4669              -15.99          4.739          70.25          38.75         -6.522          8.226          2.439          52.96         -24.43          96.28          154.8
    0.5136               -16.0          4.746          70.24          38.76         -6.525          8.228          2.406          52.96          -24.4          96.28          154.8
    0.5603              -16.01          4.753          70.22          38.77         -6.529          8.231           2.37          52.96         -24.38          96.27          154.8
     0.607              -16.02          4.761          70.21          38.78         -6.532          8.233          2.332          52.96         -24.34          96.27          154.8
    0.6537              -16.03          4.769           70.2          38.79         -6.536          8.236          2.291          52.97         -24.31          96.27          154.7
    0.7003              -16.05          4.778          70.18           38.8          -6.54          8.239          2.246          52.97         -24.27          96.27          154.7
     0.747              -16.06          4.788          70.16          38.81         -6.545          8.242          2.197          52.97         -24.23          96.27          154.6
    0.7937              -16.08          4.799          70.14          38.83          -6.55          8.245          2.143          52.98         -24.19          96.26          154.6
    0.8404               -16.1          4.811          70.12          38.84         -6.556          8.249          2.085          52.98         -24.14          96.26          154.5
    0.8871              -16.12          4.824           70.1          38.86         -6.562          8.253          2.022          52.99         -24.09          96.26          154.5
    0.9338              -16.14          4.838          70.07          38.88         -6.568          8.257          1.952          52.99         -24.03          96.25          154.4
    0.9805              -16.17          4.853          70.04           38.9         -6.576          8.262          1.875           53.0         -23.97          96.25          154.3
     1.027               -16.2           4.87          70.01          38.92         -6.584          8.267           1.79           53.0          -23.9          96.24          154.3
     1.074              -16.23          4.889          69.98          38.94         -6.593          8.273          1.696          53.01         -23.82          96.24          154.2
     1.121              -16.26          4.911          69.94          38.97         -6.603           8.28          1.591          53.02         -23.73          96.23          154.1
     1.167               -16.3          4.934           69.9           39.0         -6.614          8.287          1.475          53.03         -23.64          96.23          154.0
     1.214              -16.34           4.96          69.85          39.03         -6.626          8.296          1.344          53.04         -23.53          96.22          153.9
     1.261              -16.39           4.99          69.79          39.07          -6.64          8.305          1.197          53.05         -23.41          96.21          153.7
     1.307              -16.44          5.024          69.73          39.11         -6.656          8.315           1.03          53.06         -23.27          96.21          153.6
     1.354               -16.5          5.062          69.66          39.16         -6.674          8.327         0.8417          53.07         -23.11           96.2          153.4
     1.401              -16.57          5.105          69.58          39.22         -6.694          8.341         0.6263          53.09         -22.94          96.18          153.2
     1.447              -16.65          5.155          69.49          39.28         -6.718          8.357         0.3791          53.11         -22.73          96.17          153.0
     1.494              -16.74          5.213          69.39          39.35         -6.745          8.375        0.09364          53.13          -22.5          96.16          152.7
     1.541              -16.85           5.28          69.27          39.44         -6.777          8.396         -0.238          53.16         -22.22          96.14          152.4
     1.587              -16.98          5.358          69.12          39.54         -6.813           8.42        -0.6261          53.18          -21.9          96.12          152.1
     1.634              -17.13          5.451          68.96          39.66         -6.857          8.449         -1.084          53.22         -21.53           96.1          151.7
     1.681               -17.3          5.561          68.76           39.8         -6.909          8.483         -1.627          53.26         -21.08          96.07          151.2
     1.728              -17.51          5.692          68.52          39.96         -6.971          8.525         -2.279          53.31         -20.54          96.03          150.6
     1.774              -17.77          5.851          68.23          40.16         -7.046          8.575         -3.067          53.37         -19.89          95.99          149.9
     1.821              -18.08          6.046          67.88          40.41         -7.137          8.635          -4.03          53.44         -19.09          95.94          149.0
     1.868              -18.47          6.286          67.44          40.72          -7.25          8.711         -5.219          53.53         -18.11          95.88          147.9
     1.914              -18.95          6.585           66.9           41.1         -7.391          8.804         -6.701          53.64         -16.89           95.8          146.6
     1.961              -19.55          6.962          66.21          41.58         -7.569          8.922         -8.568          53.78         -15.35          95.71          144.9
     2.008              -20.32          7.442          65.34          42.19         -7.794          9.072         -10.94          53.96         -13.39          95.58          142.8
     2.054               -21.3          8.055          64.22          42.97         -8.083          9.264         -13.98          54.19         -10.88          95.43          140.0
     2.101              -22.57          8.843          62.79          43.97         -8.454          9.511         -17.88          54.48         -7.665          95.22          136.5
     2.148              -24.18          9.849          60.97          45.25         -8.927          9.826         -22.86          54.85         -3.555          94.97          132.0
     2.194              -26.21          11.11          58.67          46.85         -9.523          10.22         -29.12          55.32          1.612          94.64          126.3
     2.241              -28.68          12.65          55.87          48.81         -10.25           10.7         -36.75          55.89           7.91          94.24          119.4
     2.288              -31.55          14.44          52.62          51.08         -11.09          11.26          -45.6          56.56          15.21          93.79          111.4
     2.334              -34.65          16.38          49.11          53.54          -12.0          11.87         -55.17          57.27          23.11          93.29          102.8
     2.381              -37.75          18.31          45.59           56.0         -12.91          12.47         -64.75          57.99          31.02          92.79          94.13
     2.428              -40.62           20.1          42.34          58.27         -13.75          13.03          -73.6          58.66          38.32          92.33          86.14
     2.475              -43.09          21.64          39.54          60.23         -14.48          13.52         -81.23          59.23          44.61          91.94          79.25
     2.521              -45.12           22.9          37.25          61.84         -15.07          13.91         -87.49           59.7          49.78          91.61          73.59
     2.568              -46.73          23.91          35.42          63.12         -15.55          14.23         -92.47          60.07          53.89          91.35          69.09
     2.615               -48.0           24.7          33.99          64.12         -15.92          14.47         -96.37          60.36          57.11          91.15          65.56
     2.661              -48.98          25.31          32.87           64.9         -16.21          14.67          -99.4          60.59          59.62          90.99          62.82
     2.708              -49.75          25.79           32.0          65.51         -16.43          14.82         -101.8          60.77          61.58          90.87          60.67
     2.755              -50.36          26.17          31.32          65.99         -16.61          14.93         -103.6          60.91          63.12          90.77          58.99
